<?xml version="1.0" encoding="utf-8"?>
<!-- Generator: Adobe Illustrator 20.0.0, SVG Export Plug-In . SVG Version: 6.00 Build 0)  -->
<svg version="1.1" id="Livello_1" xmlns="http://www.w3.org/2000/svg" xmlns:xlink="http://www.w3.org/1999/xlink" x="0px" y="0px"
	 viewBox="0 0 200 200" style="enable-background:new 0 0 200 200;" xml:space="preserve">
<style type="text/css">
	.st0{fill:#FFFFFF;}
</style>
<g>
	<path class="st0" d="M14.8,109.8h146.7l-38.4,38.4c-3.8,3.8-3.8,10,0,13.8c1.9,1.9,4.4,2.9,7,2.9c2.6,0,5-1,7-2.9l55.1-55.1
		c3.8-3.8,3.8-10,0-13.8L137,38c-3.8-3.8-10-3.8-13.8,0c-3.8,3.8-3.8,10,0,13.8l38.4,38.4H14.8C9.4,90.2,5,94.6,5,100
		C5,105.5,9.4,109.8,14.8,109.8L14.8,109.8z M14.8,109.8"/>
</g>
</svg>
